# xmcd
#
# Track frame offsets:
#	150
#	22529
#	49269
#	71101
#	89934
#
# Disc length: 1494 seconds
#
# Revision: 0
# Processed by: cddbd v1.5.2PL0 Copyright (c) Steve Scherf et al.
# Submitted via: EasyCDDAExtractor 16.0.6.1
#
DISCID=3f05d405
DTITLE=Κορκολής Στέφανος - Δακρυσμένα Φεγγάρια
DYEAR=1990
DGENRE=Slow 
TTITLE0=Δακρυσμένα Φεγγάρια
TTITLE1=Ήλιος Θάνατος
TTITLE2=Έπιασε Βροχή
TTITLE3=Απίστευτο Που Ζω
TTITLE4=Δακρύζει Ο Ουρανός
EXTD=
EXTT0=
EXTT1=
EXTT2=
EXTT3=
EXTT4=
PLAYORDER=
